<svg id="visual" viewBox="0 0 900 600" width="900" height="600" xmlns="http://www.w3.org/2000/svg" xmlns:xlink="http://www.w3.org/1999/xlink" version="1.1"><rect x="0" y="0" width="900" height="600" fill="#8E8DBE"></rect><defs><linearGradient id="grad1_0" x1="33.3%" y1="0%" x2="100%" y2="100%"><stop offset="20%" stop-color="#8e8dbe" stop-opacity="1"></stop><stop offset="80%" stop-color="#8e8dbe" stop-opacity="1"></stop></linearGradient></defs><defs><linearGradient id="grad2_0" x1="0%" y1="0%" x2="66.7%" y2="100%"><stop offset="20%" stop-color="#8e8dbe" stop-opacity="1"></stop><stop offset="80%" stop-color="#8e8dbe" stop-opacity="1"></stop></linearGradient></defs><g transform="translate(900, 0)"><path d="M0 486.7C-79.1 495.6 -158.1 504.5 -186.3 449.7C-214.4 394.9 -191.7 276.4 -226.3 226.3C-260.8 176.1 -352.6 194.3 -405.6 168C-458.5 141.7 -472.6 70.8 -486.7 0L0 0Z" fill="#96F550"></path></g><g transform="translate(0, 600)"><path d="M0 -486.7C38.2 -393.1 76.5 -299.4 106 -255.9C135.5 -212.4 156.4 -219.2 222 -222C287.7 -224.9 398.1 -223.9 449.7 -186.3C501.3 -148.6 494 -74.3 486.7 0L0 0Z" fill="#96F550"></path></g></svg>