<?xml version="1.0" encoding="utf-8"?>
<!-- Generator: Adobe Illustrator 24.0.0, SVG Export Plug-In . SVG Version: 6.00 Build 0)  -->
<svg version="1.1" xmlns="http://www.w3.org/2000/svg" xmlns:xlink="http://www.w3.org/1999/xlink" x="0px" y="0px"
	 viewBox="0 0 256 256" enable-background="new 0 0 256 256" xml:space="preserve">
<g id="Layer_2" display="none">
	<rect x="-1436" y="-4824" display="inline" fill="#FFFFFF" width="1786" height="5896"/>
</g>
<g id="Layer_1">
	<g>
		<path fill="#AFAFAF" d="M233,247.529H23c-8.284,0-15-6.716-15-15v-5.75c0-2.761,2.239-5,5-5h230c2.761,0,5,2.239,5,5v5.75
			C248,240.814,241.284,247.529,233,247.529z"/>
		<path fill="#AFAFAF" d="M235.5,98.196v123.58h-215V98.196c0-8.284,6.716-15,15-15h31.16c-2.03,3.8-3.71,7.81-5.01,12
			c-0.91,2.94-1.63,5.97-2.15,9.06h-8.1c-1.539,0-2.818,1.164-2.989,2.694c-0.655,5.856-0.655,11.921-0.001,17.763
			c0.171,1.529,1.451,2.693,2.989,2.693H59.5c1.76,10.56,5.91,20.31,11.88,28.68l-5.735,5.728c-1.091,1.09-1.171,2.823-0.206,4.025
			c3.715,4.63,7.928,8.843,12.558,12.558c1.203,0.965,2.936,0.885,4.025-0.206l5.728-5.735c8.37,5.96,18.11,10.12,28.67,11.88v8.099
			c0,1.538,1.163,2.819,2.692,2.989c5.784,0.646,11.819,0.664,17.771,0c1.53-0.171,2.697-1.45,2.697-2.989v-8.099
			c10.56-1.76,20.3-5.92,28.67-11.88l5.728,5.735c1.09,1.091,2.823,1.171,4.025,0.206c4.63-3.715,8.843-7.928,12.558-12.558
			c0.965-1.203,0.885-2.936-0.206-4.025l-5.735-5.728c5.97-8.37,10.12-18.12,11.88-28.68h8.101c1.539,0,2.818-1.164,2.989-2.693
			c0.653-5.837,0.655-11.902-0.001-17.763c-0.171-1.529-1.451-2.694-2.989-2.694h-8.1c-0.52-3.09-1.24-6.12-2.15-9.06
			c-1.3-4.19-2.98-8.2-5.01-12h31.16C228.784,83.196,235.5,89.912,235.5,98.196z"/>
		<path fill="#F0C020" d="M223.5,100.196v121.58h-191v-121.58c0-2.761,2.239-5,5-5h24.15c-0.91,2.94-1.63,5.97-2.15,9.06h-8.1
			c-1.539,0-2.818,1.164-2.989,2.694c-0.655,5.856-0.655,11.921-0.001,17.763c0.171,1.529,1.451,2.693,2.989,2.693H59.5
			c1.76,10.56,5.91,20.31,11.88,28.68l-5.735,5.728c-1.091,1.09-1.171,2.823-0.206,4.025c3.715,4.63,7.928,8.843,12.558,12.558
			c1.203,0.965,2.936,0.885,4.025-0.206l5.728-5.735c8.37,5.96,18.11,10.12,28.67,11.88v8.099c0,1.538,1.163,2.819,2.692,2.989
			c5.784,0.646,11.819,0.664,17.771,0c1.53-0.171,2.697-1.45,2.697-2.989v-8.099c10.56-1.76,20.3-5.92,28.67-11.88l5.728,5.735
			c1.09,1.091,2.823,1.171,4.025,0.206c4.63-3.715,8.843-7.928,12.558-12.558c0.965-1.203,0.885-2.936-0.206-4.025l-5.735-5.728
			c5.97-8.37,10.12-18.12,11.88-28.68h8.101c1.539,0,2.818-1.164,2.989-2.693c0.653-5.837,0.655-11.902-0.001-17.763
			c-0.171-1.529-1.451-2.694-2.989-2.694h-8.1c-0.52-3.09-1.24-6.12-2.15-9.06h24.15C221.261,95.196,223.5,97.435,223.5,100.196z"/>
		<path fill="#F8E5B0" d="M213.5,214.276H56.87c-1.381,0-2.5-1.119-2.5-2.5s1.119-2.5,2.5-2.5H211v-71.87c0-1.381,1.119-2.5,2.5-2.5
			s2.5,1.119,2.5,2.5v74.37C216,213.157,214.881,214.276,213.5,214.276z M46.87,214.276H42.5c-1.381,0-2.5-1.119-2.5-2.5
			s1.119-2.5,2.5-2.5h4.37c1.381,0,2.5,1.119,2.5,2.5S48.251,214.276,46.87,214.276z"/>
		<path fill="#7D7B79" d="M151,234.654h-46c-2.761,0-5-2.239-5-5v-7.875h56v7.875C156,232.416,153.761,234.654,151,234.654z"/>
		<path fill="#FC5D3D" d="M204.601,127.406H196.5c-1.76,10.56-5.91,20.31-11.88,28.68l5.735,5.728
			c1.091,1.09,1.171,2.823,0.206,4.025c-3.715,4.63-7.928,8.843-12.558,12.558c-1.203,0.965-2.936,0.885-4.025-0.206l-5.728-5.735
			c-8.37,5.96-18.11,10.12-28.67,11.88v8.099c0,1.54-1.167,2.819-2.697,2.989c-5.952,0.664-11.987,0.646-17.771,0
			c-1.529-0.171-2.692-1.451-2.692-2.989v-8.099c-10.56-1.76-20.3-5.92-28.67-11.88l-5.728,5.735
			c-1.09,1.091-2.823,1.171-4.025,0.206c-4.63-3.715-8.843-7.928-12.558-12.558c-0.965-1.203-0.885-2.936,0.206-4.025l5.735-5.728
			c-5.97-8.37-10.12-18.12-11.88-28.68h-8.101c-1.539,0-2.818-1.164-2.989-2.693c-0.653-5.834-0.653-11.899,0.002-17.763
			c0.171-1.53,1.45-2.695,2.989-2.695h8.1c0.52-3.09,1.24-6.12,2.15-9.06c1.3-4.19,2.98-8.2,5.01-12c1.41-2.65,2.99-5.19,4.72-7.61
			l-5.738-5.738c-1.09-1.09-1.169-2.822-0.204-4.024c3.716-4.631,7.93-8.844,12.561-12.554c1.202-0.963,2.933-0.883,4.022,0.206
			l5.729,5.729c7.34-5.22,15.73-9.06,24.8-11.11l0.01,22v44.23l6.72,12.69l0.01,0.01l8.71,16.41l8.72-16.41l0.01-0.01l6.71-12.69
			v-66.23c9.08,2.05,17.47,5.88,24.81,11.11l5.729-5.729c1.089-1.089,2.82-1.169,4.022-0.206c4.631,3.71,8.845,7.923,12.561,12.554
			c0.964,1.202,0.885,2.934-0.204,4.024l-5.738,5.738c4.18,5.848,7.507,12.445,9.73,19.61c0.91,2.94,1.63,5.97,2.15,9.06h8.1
			c1.539,0,2.819,1.165,2.989,2.694c0.654,5.857,0.654,11.922,0.001,17.763C207.419,126.242,206.139,127.406,204.601,127.406z"/>
		<path fill="#FFCBC3" d="M128,179.118c-11.463,0-22.691-3.095-32.473-8.949c-1.185-0.71-1.57-2.245-0.861-3.43
			c0.711-1.185,2.246-1.568,3.43-0.861c9.005,5.391,19.346,8.24,29.904,8.24c51.498,0,78.048-62.662,41.214-99.499
			c-0.977-0.977-0.977-2.56,0-3.535c0.977-0.977,2.559-0.977,3.535,0C212.759,111.097,183.86,179.118,128,179.118z M87.075,164.109
			c-1.313-1.116-2.601-2.303-3.824-3.527c-0.977-0.977-0.977-2.559,0-3.535s2.559-0.977,3.535,0
			c1.129,1.129,2.315,2.223,3.527,3.252c1.052,0.895,1.18,2.472,0.286,3.524C89.706,164.874,88.129,165.003,87.075,164.109z"/>
		<path fill="#EFEFEF" d="M176.27,115.836c0,26.65-21.61,48.26-48.27,48.26s-48.27-21.61-48.27-48.26
			c0-21.26,13.74-39.31,32.83-45.74v44.23l6.72,12.69l0.01,0.01l8.71,16.41l8.72-16.41l0.01-0.01l6.71-12.69v-44.23
			C162.53,76.526,176.27,94.576,176.27,115.836z"/>
		<path fill="#72C2E9" d="M143.44,18.646v95.68l-6.71,12.69l-0.01,0.01l-8.72,16.41l-8.71-16.41l-0.01-0.01l-6.72-12.69v-44.23
			l-0.01-22v-29.45c0-5.53,4.48-10,10-10h10.89C138.97,8.646,143.44,13.116,143.44,18.646z"/>
		<path fill="#FC5D3D" d="M133.444,8.641h-10.89c-5.523,0-10,4.477-10,10v14.667h30.89V18.641
			C143.444,13.118,138.967,8.641,133.444,8.641z"/>
		<polygon fill="#F0C020" points="143.44,114.326 136.73,127.016 136.72,127.026 128,143.436 119.29,127.026 119.28,127.016 
			112.56,114.326 		"/>
		<polygon fill="#878787" points="136.73,127.016 136.72,127.026 128,143.436 119.29,127.026 119.28,127.016 		"/>
		<g>
			<path d="M243,219.276h-5V98.196c0-9.65-7.851-17.5-17.5-17.5h-29.705c-0.911-1.629-1.88-3.246-2.936-4.82l4.261-4.26
				c1.985-1.987,2.151-5.174,0.39-7.36c-3.83-4.77-8.18-9.12-12.95-12.939c-2.171-1.747-5.346-1.614-7.35,0.39l-4.25,4.26
				c-6.771-4.525-14.17-7.815-22.021-9.822c0-15.58,0-12.288,0-27.498v-0.011c0-6.849-5.59-12.489-12.5-12.489h-10.89
				c-6.89,0-12.5,5.6-12.5,12.489c0,9.952,0.002,22.551,0.003,27.507c-7.826,1.999-15.225,5.288-22.013,9.823l-4.25-4.26
				c-1.928-1.926-5.082-2.203-7.36-0.39c-4.75,3.819-9.11,8.17-12.939,12.939c-1.805,2.241-1.56,5.429,0.39,7.36l4.26,4.26
				c-1.055,1.567-2.026,3.188-2.942,4.82H35.5c-9.65,0-17.5,7.85-17.5,17.5v36.89c0,1.38,1.12,2.5,2.5,2.5s2.5-1.12,2.5-2.5v-36.89
				c0.01-6.88,5.62-12.49,12.5-12.5h27.14c-1.05,2.277-1.978,4.616-2.787,7H37.5c-4.13,0-7.5,3.37-7.5,7.5v119.08h-7v-64.19
				c0-1.38-1.12-2.5-2.5-2.5s-2.5,1.12-2.5,2.5v64.19h-5c-4.141,0-7.5,3.37-7.5,7.5v5.75c0,9.649,7.85,17.5,17.5,17.5h170
				c1.38,0,2.5-1.12,2.5-2.5s-1.12-2.5-2.5-2.5H23c-6.88-0.011-12.49-5.62-12.5-12.5v-5.75c0-1.37,1.12-2.5,2.5-2.5
				c26.559,0,44.394,0,84.5,0v5.38c0,4.13,3.359,7.5,7.5,7.5h46c4.13,0,7.5-3.37,7.5-7.5v-5.38c16.778,0,66.75,0,84.5,0
				c1.37,0,2.5,1.13,2.5,2.5v5.75c-0.01,6.88-5.62,12.489-12.5,12.5h-20c-1.38,0-2.5,1.12-2.5,2.5s1.12,2.5,2.5,2.5h20
				c9.649,0,17.5-7.851,17.5-17.5v-5.75C250.5,222.646,247.13,219.276,243,219.276z M122.55,11.146h10.89c4.13,0,7.5,3.369,7.5,7.5
				v12.159c-30.7,0-24.34,0-25.888,0l-0.001-12.159C115.06,14.516,118.42,11.156,122.55,11.146z M120.78,124.516l-4.069-7.689
				h22.578l-4.068,7.689H120.78z M132.565,129.516L128,138.106l-4.558-8.591H132.565z M115.059,111.826l-0.008-76.021h10.453v76.021
				H115.059z M130.505,111.826V35.806h10.435c0,11.028,0,65.076,0,76.021H130.505z M110.06,114.326c0,0.355,0.156,0.906,0.29,1.17
				c7.141,13.485,3.376,6.388,15.44,29.11c0.95,1.771,3.467,1.773,4.42,0c14.781-27.838,4.405-8.242,15.439-29.11
				c0.164-0.316,0.29-0.77,0.29-1.17V73.72c16.787,7.132,27.83,23.638,27.83,42.116c0,25.35-20.534,45.76-45.77,45.76
				c-25.353,0-45.771-20.524-45.771-45.76c-0.009-18.474,11.037-34.984,27.826-42.112L110.06,114.326z M153.5,229.656
				c0,1.37-1.12,2.5-2.5,2.5h-46c-1.38,0-2.5-1.13-2.5-2.5v-5.38h51V229.656z M221,219.276c-7.446,0-178.057,0-186,0v-119.08
				c0-1.37,1.12-2.5,2.5-2.5h20.849c-0.347,1.346-0.664,2.701-0.929,4.06h-6.021c-2.81,0-5.17,2.12-5.47,4.92
				c-0.674,5.909-0.682,12.258-0.01,18.311c0.31,2.8,2.67,4.92,5.479,4.92h6.141c1.38,0,2.5-1.12,2.5-2.5c0-1.37-1.12-2.49-2.49-2.5
				h-0.01h-6.15c-0.25,0-0.46-0.2-0.5-0.48c-0.636-5.754-0.619-11.665,0.01-17.2c0.03-0.27,0.24-0.47,0.5-0.47H59.5
				c1.229,0,2.26-0.88,2.47-2.09c1.706-10.27,5.787-19.723,11.45-27.63c0.71-0.99,0.59-2.35-0.271-3.22l-5.739-5.73
				c-0.194-0.213-0.19-0.485-0.03-0.689c3.6-4.49,7.7-8.591,12.18-12.171c0.201-0.179,0.496-0.172,0.69,0.021l5.729,5.729
				c0.84,0.841,2.24,0.961,3.221,0.271c6.387-4.555,13.396-7.887,20.853-9.943l0.002,17.035
				c-19.133,7.225-32.825,25.708-32.825,47.499c0,28.039,22.734,50.76,50.771,50.76c28.044,0,50.77-22.725,50.77-50.76
				c0-21.617-13.536-40.226-32.83-47.501v-17.03c7.48,2.063,14.489,5.395,20.86,9.941c0.97,0.69,2.37,0.57,3.22-0.271l5.73-5.729
				c0.198-0.198,0.476-0.187,0.689-0.03c4.48,3.59,8.57,7.69,12.17,12.17c0.168,0.21,0.164,0.506-0.029,0.7l-5.73,5.73
				c-0.87,0.87-0.979,2.22-0.27,3.22c5.857,8.183,9.798,17.687,11.45,27.63c0.199,1.21,1.239,2.09,2.47,2.09h8.1
				c0.26,0,0.47,0.2,0.5,0.47c0.621,5.49,0.659,11.362,0,17.211c-0.03,0.27-0.24,0.47-0.5,0.47h-8.1c-1.23,0-2.271,0.88-2.47,2.09
				c-1.641,9.89-5.601,19.44-11.45,27.64c-0.71,1-0.601,2.351,0.27,3.221l5.74,5.729c0.172,0.172,0.199,0.467,0.01,0.7
				c-3.58,4.47-7.68,8.56-12.16,12.16c-0.199,0.16-0.488,0.17-0.699-0.021l-5.721-5.739c-0.84-0.841-2.25-0.961-3.22-0.271
				c-8.33,5.93-17.62,9.78-27.63,11.45c-1.21,0.21-2.09,1.24-2.09,2.47v8.101c0,0.26-0.2,0.47-0.48,0.5
				c-5.66,0.63-11.54,0.63-17.21,0c-0.27-0.03-0.47-0.25-0.47-0.5v-8.101c0-1.229-0.88-2.26-2.09-2.46
				c-10.011-1.68-19.3-5.53-27.63-11.46c-0.971-0.69-2.381-0.57-3.221,0.271l-5.729,5.739c-0.183,0.183-0.484,0.185-0.69,0.021
				c-4.49-3.601-8.58-7.7-12.17-12.17c-0.165-0.207-0.182-0.488,0.021-0.69l5.729-5.729c0.87-0.87,0.99-2.221,0.28-3.221
				c-2.49-3.479-4.63-7.199-6.39-11.069c-0.561-1.21-2.091-1.79-3.311-1.24c-1.303,0.598-1.801,2.096-1.24,3.32
				c1.601,3.51,3.5,6.92,5.66,10.14l-4.26,4.26c-1.953,1.934-2.193,5.099-0.39,7.36c3.819,4.76,8.18,9.12,12.939,12.939
				c2.17,1.749,5.375,1.614,7.36-0.39l4.26-4.26c7.9,5.29,16.61,8.899,25.87,10.729v6.011c0,2.81,2.11,5.159,4.91,5.47
				c5.876,0.661,12.148,0.698,18.33,0c2.8-0.311,4.92-2.66,4.92-5.47v-6.011c9.26-1.83,17.97-5.439,25.87-10.729l4.26,4.26
				c1.97,1.97,5.149,2.165,7.35,0.39c4.771-3.819,9.13-8.18,12.95-12.939c1.805-2.285,1.545-5.443-0.39-7.36l-4.261-4.26
				c5.28-7.88,8.891-16.59,10.721-25.88h6.02c2.811,0,5.17-2.12,5.48-4.92c0.67-6.128,0.667-12.309-0.011-18.311
				c-0.3-2.8-2.659-4.92-5.47-4.92h-6.02c-0.27-1.362-0.588-2.717-0.934-4.06H218.5c1.37,0,2.5,1.13,2.5,2.5V219.276z M233,219.276
				h-7v-119.08c0-4.13-3.37-7.5-7.5-7.5h-22.354c-0.809-2.381-1.736-4.72-2.789-7H220.5c6.88,0.01,12.49,5.62,12.5,12.5V219.276z"/>
			<circle cx="203" cy="247.526" r="2.5"/>
			<circle cx="20.5" cy="145.086" r="2.5"/>
			<path d="M63.68,134.546c-0.37-1.29-1.8-2.09-3.09-1.71c-1.399,0.41-2.083,1.848-1.71,3.08c0,0.01,0,0.01,0,0.021
				c0.388,1.328,1.814,2.093,3.1,1.699C63.3,137.256,64.06,135.866,63.68,134.546z"/>
		</g>
	</g>
</g>
</svg>
